<svg xmlns="http://www.w3.org/2000/svg" width="1236" height="956" viewBox="0 0 1236 956">
<defs><filter id="shadow" x="-20%" y="-20%" width="140%" height="140%"><feDropShadow dx="0" dy="1.2" stdDeviation="1.2" flood-opacity="0.16"/></filter></defs>
<rect width="100%" height="100%" fill="white"/>
<text x="36" y="36" font-size="18" font-weight="700" font-family="Arial, sans-serif">王氏家族关系图（严格核心家庭分组）</text>
<g stroke="#555" stroke-width="1.4" fill="none">
<line x1="720.0" y1="312.0" x2="732.0" y2="312.0"/>
<line x1="754.0" y1="498.0" x2="766.0" y2="498.0"/>
<line x1="1144.0" y1="312.0" x2="1156.0" y2="312.0"/>
<line x1="188.0" y1="312.0" x2="200.0" y2="312.0"/>
<line x1="692.0" y1="684.0" x2="704.0" y2="684.0"/>
<line x1="816.0" y1="684.0" x2="828.0" y2="684.0"/>
<line x1="980.0" y1="498.0" x2="992.0" y2="498.0"/>
<line x1="612.0" y1="126.0" x2="624.0" y2="126.0"/>
<line x1="726.0" y1="362" x2="726.0" y2="406.72"/>
<line x1="398.0" y1="406.72" x2="1014.0" y2="406.72"/>
<line x1="398.0" y1="406.72" x2="398.0" y2="448"/>
<line x1="466.0" y1="406.72" x2="466.0" y2="448"/>
<line x1="534.0" y1="406.72" x2="534.0" y2="448"/>
<line x1="602.0" y1="406.72" x2="602.0" y2="448"/>
<line x1="732.0" y1="406.72" x2="732.0" y2="448"/>
<line x1="1014.0" y1="406.72" x2="1014.0" y2="448"/>
<line x1="760.0" y1="548" x2="760.0" y2="592.72"/>
<line x1="670.0" y1="592.72" x2="794.0" y2="592.72"/>
<line x1="670.0" y1="592.72" x2="670.0" y2="634"/>
<line x1="794.0" y1="592.72" x2="794.0" y2="634"/>
<line x1="194.0" y1="362" x2="194.0" y2="406.72"/>
<line x1="58.0" y1="406.72" x2="330.0" y2="406.72"/>
<line x1="58.0" y1="406.72" x2="58.0" y2="448"/>
<line x1="126.0" y1="406.72" x2="126.0" y2="448"/>
<line x1="194.0" y1="406.72" x2="194.0" y2="448"/>
<line x1="262.0" y1="406.72" x2="262.0" y2="448"/>
<line x1="330.0" y1="406.72" x2="330.0" y2="448"/>
<line x1="698.0" y1="734" x2="698.0" y2="778.72"/>
<line x1="698.0" y1="778.72" x2="698.0" y2="778.72"/>
<line x1="698.0" y1="778.72" x2="698.0" y2="820"/>
<line x1="822.0" y1="734" x2="822.0" y2="778.72"/>
<line x1="822.0" y1="778.72" x2="822.0" y2="778.72"/>
<line x1="822.0" y1="778.72" x2="822.0" y2="820"/>
<line x1="986.0" y1="548" x2="986.0" y2="592.72"/>
<line x1="918.0" y1="592.72" x2="1054.0" y2="592.72"/>
<line x1="918.0" y1="592.72" x2="918.0" y2="634"/>
<line x1="986.0" y1="592.72" x2="986.0" y2="634"/>
<line x1="1054.0" y1="592.72" x2="1054.0" y2="634"/>
<line x1="618.0" y1="176" x2="618.0" y2="220.72"/>
<line x1="166.0" y1="220.72" x2="1178.0" y2="220.72"/>
<line x1="166.0" y1="220.72" x2="166.0" y2="262"/>
<line x1="698.0" y1="220.72" x2="698.0" y2="262"/>
<line x1="1178.0" y1="220.72" x2="1178.0" y2="262"/>
</g>
<g font-family="Arial, sans-serif">
<g filter="url(#shadow)">
<rect x="568.0" y="76" width="44" height="100" rx="10" ry="10" fill="#F2F6FF" stroke="#2F5AA8" stroke-width="1.6"/>
<text x="590.0" y="89.0" text-anchor="middle" font-size="10.5" fill="#111">♂</text>
<text x="590.0" y="100.0" text-anchor="middle" font-size="10.5" fill="#111">王</text>
<text x="590.0" y="111.0" text-anchor="middle" font-size="10.5" fill="#111">公</text>
<text x="609.0" y="86" text-anchor="end" font-size="8.5" fill="#666">G1</text>
</g>
<g filter="url(#shadow)">
<rect x="624.0" y="76" width="44" height="100" rx="10" ry="10" fill="#FFF2F6" stroke="#A82F5A" stroke-width="1.6"/>
<text x="646.0" y="89.0" text-anchor="middle" font-size="10.5" fill="#111">♀</text>
<text x="646.0" y="100.0" text-anchor="middle" font-size="10.5" fill="#111">王</text>
<text x="646.0" y="111.0" text-anchor="middle" font-size="10.5" fill="#111">氏</text>
<text x="665.0" y="86" text-anchor="end" font-size="8.5" fill="#666">G1</text>
</g>
<g filter="url(#shadow)">
<rect x="144.0" y="262" width="44" height="100" rx="10" ry="10" fill="#F2F6FF" stroke="#2F5AA8" stroke-width="1.6"/>
<text x="166.0" y="275.0" text-anchor="middle" font-size="10.5" fill="#111">♂</text>
<text x="166.0" y="286.0" text-anchor="middle" font-size="10.5" fill="#111">王</text>
<text x="166.0" y="297.0" text-anchor="middle" font-size="10.5" fill="#111">志</text>
<text x="166.0" y="308.0" text-anchor="middle" font-size="10.5" fill="#111">模</text>
<text x="185.0" y="272" text-anchor="end" font-size="8.5" fill="#666">G2</text>
</g>
<g filter="url(#shadow)">
<rect x="200.0" y="262" width="44" height="100" rx="10" ry="10" fill="#FFF2F6" stroke="#A82F5A" stroke-width="1.6"/>
<text x="222.0" y="275.0" text-anchor="middle" font-size="10.5" fill="#111">♀</text>
<text x="222.0" y="286.0" text-anchor="middle" font-size="10.5" fill="#111">胡</text>
<text x="222.0" y="297.0" text-anchor="middle" font-size="10.5" fill="#111">新</text>
<text x="222.0" y="308.0" text-anchor="middle" font-size="10.5" fill="#111">秀</text>
<text x="241.0" y="272" text-anchor="end" font-size="8.5" fill="#666">G2</text>
</g>
<g filter="url(#shadow)">
<rect x="36.0" y="448" width="44" height="100" rx="10" ry="10" fill="#F2F6FF" stroke="#2F5AA8" stroke-width="1.6"/>
<text x="58.0" y="461.0" text-anchor="middle" font-size="10.5" fill="#111">♂</text>
<text x="58.0" y="472.0" text-anchor="middle" font-size="10.5" fill="#111">王</text>
<text x="58.0" y="483.0" text-anchor="middle" font-size="10.5" fill="#111">宏</text>
<text x="58.0" y="494.0" text-anchor="middle" font-size="10.5" fill="#111">仁</text>
<text x="77.0" y="458" text-anchor="end" font-size="8.5" fill="#666">G3</text>
</g>
<g filter="url(#shadow)">
<rect x="104.0" y="448" width="44" height="100" rx="10" ry="10" fill="#F2F6FF" stroke="#2F5AA8" stroke-width="1.6"/>
<text x="126.0" y="461.0" text-anchor="middle" font-size="10.5" fill="#111">♂</text>
<text x="126.0" y="472.0" text-anchor="middle" font-size="10.5" fill="#111">王</text>
<text x="126.0" y="483.0" text-anchor="middle" font-size="10.5" fill="#111">宏</text>
<text x="126.0" y="494.0" text-anchor="middle" font-size="10.5" fill="#111">达</text>
<text x="145.0" y="458" text-anchor="end" font-size="8.5" fill="#666">G3</text>
</g>
<g filter="url(#shadow)">
<rect x="172.0" y="448" width="44" height="100" rx="10" ry="10" fill="#F2F6FF" stroke="#2F5AA8" stroke-width="1.6"/>
<text x="194.0" y="461.0" text-anchor="middle" font-size="10.5" fill="#111">♂</text>
<text x="194.0" y="472.0" text-anchor="middle" font-size="10.5" fill="#111">王</text>
<text x="194.0" y="483.0" text-anchor="middle" font-size="10.5" fill="#111">宏</text>
<text x="194.0" y="494.0" text-anchor="middle" font-size="10.5" fill="#111">则</text>
<text x="213.0" y="458" text-anchor="end" font-size="8.5" fill="#666">G3</text>
</g>
<g filter="url(#shadow)">
<rect x="240.0" y="448" width="44" height="100" rx="10" ry="10" fill="#FFF2F6" stroke="#A82F5A" stroke-width="1.6"/>
<text x="262.0" y="461.0" text-anchor="middle" font-size="10.5" fill="#111">♀</text>
<text x="262.0" y="472.0" text-anchor="middle" font-size="10.5" fill="#111">王</text>
<text x="262.0" y="483.0" text-anchor="middle" font-size="10.5" fill="#111">玉</text>
<text x="262.0" y="494.0" text-anchor="middle" font-size="10.5" fill="#111">珍</text>
<text x="281.0" y="458" text-anchor="end" font-size="8.5" fill="#666">G3</text>
</g>
<g filter="url(#shadow)">
<rect x="308.0" y="448" width="44" height="100" rx="10" ry="10" fill="#FFF2F6" stroke="#A82F5A" stroke-width="1.6"/>
<text x="330.0" y="461.0" text-anchor="middle" font-size="10.5" fill="#111">♀</text>
<text x="330.0" y="472.0" text-anchor="middle" font-size="10.5" fill="#111">王</text>
<text x="330.0" y="483.0" text-anchor="middle" font-size="10.5" fill="#111">宏</text>
<text x="330.0" y="494.0" text-anchor="middle" font-size="10.5" fill="#111">杰</text>
<text x="349.0" y="458" text-anchor="end" font-size="8.5" fill="#666">G3</text>
</g>
<g filter="url(#shadow)">
<rect x="676.0" y="262" width="44" height="100" rx="10" ry="10" fill="#F2F6FF" stroke="#2F5AA8" stroke-width="1.6"/>
<text x="698.0" y="275.0" text-anchor="middle" font-size="10.5" fill="#111">♂</text>
<text x="698.0" y="286.0" text-anchor="middle" font-size="10.5" fill="#111">王</text>
<text x="698.0" y="297.0" text-anchor="middle" font-size="10.5" fill="#111">志</text>
<text x="698.0" y="308.0" text-anchor="middle" font-size="10.5" fill="#111">楷</text>
<text x="717.0" y="272" text-anchor="end" font-size="8.5" fill="#666">G2</text>
</g>
<g filter="url(#shadow)">
<rect x="732.0" y="262" width="44" height="100" rx="10" ry="10" fill="#FFF2F6" stroke="#A82F5A" stroke-width="1.6"/>
<text x="754.0" y="275.0" text-anchor="middle" font-size="10.5" fill="#111">♀</text>
<text x="754.0" y="286.0" text-anchor="middle" font-size="10.5" fill="#111">张</text>
<text x="754.0" y="297.0" text-anchor="middle" font-size="10.5" fill="#111">玉</text>
<text x="754.0" y="308.0" text-anchor="middle" font-size="10.5" fill="#111">清</text>
<text x="773.0" y="272" text-anchor="end" font-size="8.5" fill="#666">G2</text>
</g>
<g filter="url(#shadow)">
<rect x="376.0" y="448" width="44" height="100" rx="10" ry="10" fill="#F2F6FF" stroke="#2F5AA8" stroke-width="1.6"/>
<text x="398.0" y="461.0" text-anchor="middle" font-size="10.5" fill="#111">♂</text>
<text x="398.0" y="472.0" text-anchor="middle" font-size="10.5" fill="#111">王</text>
<text x="398.0" y="483.0" text-anchor="middle" font-size="10.5" fill="#111">宏</text>
<text x="398.0" y="494.0" text-anchor="middle" font-size="10.5" fill="#111">华</text>
<text x="417.0" y="458" text-anchor="end" font-size="8.5" fill="#666">G3</text>
</g>
<g filter="url(#shadow)">
<rect x="444.0" y="448" width="44" height="100" rx="10" ry="10" fill="#F2F6FF" stroke="#2F5AA8" stroke-width="1.6"/>
<text x="466.0" y="461.0" text-anchor="middle" font-size="10.5" fill="#111">♂</text>
<text x="466.0" y="472.0" text-anchor="middle" font-size="10.5" fill="#111">王</text>
<text x="466.0" y="483.0" text-anchor="middle" font-size="10.5" fill="#111">宏</text>
<text x="466.0" y="494.0" text-anchor="middle" font-size="10.5" fill="#111">旗</text>
<text x="485.0" y="458" text-anchor="end" font-size="8.5" fill="#666">G3</text>
</g>
<g filter="url(#shadow)">
<rect x="512.0" y="448" width="44" height="100" rx="10" ry="10" fill="#F2F6FF" stroke="#2F5AA8" stroke-width="1.6"/>
<text x="534.0" y="461.0" text-anchor="middle" font-size="10.5" fill="#111">♂</text>
<text x="534.0" y="472.0" text-anchor="middle" font-size="10.5" fill="#111">王</text>
<text x="534.0" y="483.0" text-anchor="middle" font-size="10.5" fill="#111">宏</text>
<text x="534.0" y="494.0" text-anchor="middle" font-size="10.5" fill="#111">喜</text>
<text x="553.0" y="458" text-anchor="end" font-size="8.5" fill="#666">G3</text>
</g>
<g filter="url(#shadow)">
<rect x="580.0" y="448" width="44" height="100" rx="10" ry="10" fill="#F2F6FF" stroke="#2F5AA8" stroke-width="1.6"/>
<text x="602.0" y="461.0" text-anchor="middle" font-size="10.5" fill="#111">♂</text>
<text x="602.0" y="472.0" text-anchor="middle" font-size="10.5" fill="#111">王</text>
<text x="602.0" y="483.0" text-anchor="middle" font-size="10.5" fill="#111">宏</text>
<text x="602.0" y="494.0" text-anchor="middle" font-size="10.5" fill="#111">提</text>
<text x="621.0" y="458" text-anchor="end" font-size="8.5" fill="#666">G3</text>
</g>
<g filter="url(#shadow)">
<rect x="710.0" y="448" width="44" height="100" rx="10" ry="10" fill="#FFF2F6" stroke="#A82F5A" stroke-width="1.6"/>
<text x="732.0" y="461.0" text-anchor="middle" font-size="10.5" fill="#111">♀</text>
<text x="732.0" y="472.0" text-anchor="middle" font-size="10.5" fill="#111">王</text>
<text x="732.0" y="483.0" text-anchor="middle" font-size="10.5" fill="#111">莲</text>
<text x="732.0" y="494.0" text-anchor="middle" font-size="10.5" fill="#111">英</text>
<text x="732.0" y="544" text-anchor="middle" font-size="7.5" fill="#888">b.1935</text>
<text x="751.0" y="458" text-anchor="end" font-size="8.5" fill="#666">G3</text>
</g>
<g filter="url(#shadow)">
<rect x="766.0" y="448" width="44" height="100" rx="10" ry="10" fill="#F2F6FF" stroke="#2F5AA8" stroke-width="1.6"/>
<text x="788.0" y="461.0" text-anchor="middle" font-size="10.5" fill="#111">♂</text>
<text x="788.0" y="472.0" text-anchor="middle" font-size="10.5" fill="#111">宋</text>
<text x="788.0" y="483.0" text-anchor="middle" font-size="10.5" fill="#111">伟</text>
<text x="788.0" y="544" text-anchor="middle" font-size="7.5" fill="#888">b.1935</text>
<text x="807.0" y="458" text-anchor="end" font-size="8.5" fill="#666">G3</text>
</g>
<g filter="url(#shadow)">
<rect x="648.0" y="634" width="44" height="100" rx="10" ry="10" fill="#F2F6FF" stroke="#2F5AA8" stroke-width="1.6"/>
<text x="670.0" y="647.0" text-anchor="middle" font-size="10.5" fill="#111">♂</text>
<text x="670.0" y="658.0" text-anchor="middle" font-size="10.5" fill="#111">宋</text>
<text x="670.0" y="669.0" text-anchor="middle" font-size="10.5" fill="#111">·</text>
<text x="670.0" y="680.0" text-anchor="middle" font-size="10.5" fill="#111">大</text>
<text x="670.0" y="691.0" text-anchor="middle" font-size="10.5" fill="#111">清</text>
<text x="670.0" y="730" text-anchor="middle" font-size="7.5" fill="#888">b.1967</text>
<text x="689.0" y="644" text-anchor="end" font-size="8.5" fill="#666">G4</text>
</g>
<g filter="url(#shadow)">
<rect x="704.0" y="634" width="44" height="100" rx="10" ry="10" fill="#FFF2F6" stroke="#A82F5A" stroke-width="1.6"/>
<text x="726.0" y="647.0" text-anchor="middle" font-size="10.5" fill="#111">♀</text>
<text x="726.0" y="658.0" text-anchor="middle" font-size="10.5" fill="#111">陈</text>
<text x="726.0" y="669.0" text-anchor="middle" font-size="10.5" fill="#111">丽</text>
<text x="726.0" y="680.0" text-anchor="middle" font-size="10.5" fill="#111">华</text>
<text x="726.0" y="730" text-anchor="middle" font-size="7.5" fill="#888">b.1968</text>
<text x="745.0" y="644" text-anchor="end" font-size="8.5" fill="#666">G4</text>
</g>
<g filter="url(#shadow)">
<rect x="676.0" y="820" width="44" height="100" rx="10" ry="10" fill="#F2F6FF" stroke="#2F5AA8" stroke-width="1.6"/>
<text x="698.0" y="833.0" text-anchor="middle" font-size="10.5" fill="#111">♂</text>
<text x="698.0" y="844.0" text-anchor="middle" font-size="10.5" fill="#111">宋</text>
<text x="698.0" y="855.0" text-anchor="middle" font-size="10.5" fill="#111">海</text>
<text x="698.0" y="866.0" text-anchor="middle" font-size="10.5" fill="#111">威</text>
<text x="698.0" y="916" text-anchor="middle" font-size="7.5" fill="#888">b.1994</text>
<text x="717.0" y="830" text-anchor="end" font-size="8.5" fill="#666">G5</text>
</g>
<g filter="url(#shadow)">
<rect x="772.0" y="634" width="44" height="100" rx="10" ry="10" fill="#F2F6FF" stroke="#2F5AA8" stroke-width="1.6"/>
<text x="794.0" y="647.0" text-anchor="middle" font-size="10.5" fill="#111">♂</text>
<text x="794.0" y="658.0" text-anchor="middle" font-size="10.5" fill="#111">宋</text>
<text x="794.0" y="669.0" text-anchor="middle" font-size="10.5" fill="#111">大</text>
<text x="794.0" y="680.0" text-anchor="middle" font-size="10.5" fill="#111">明</text>
<text x="794.0" y="730" text-anchor="middle" font-size="7.5" fill="#888">b.1969</text>
<text x="813.0" y="644" text-anchor="end" font-size="8.5" fill="#666">G4</text>
</g>
<g filter="url(#shadow)">
<rect x="828.0" y="634" width="44" height="100" rx="10" ry="10" fill="#FFF2F6" stroke="#A82F5A" stroke-width="1.6"/>
<text x="850.0" y="647.0" text-anchor="middle" font-size="10.5" fill="#111">♀</text>
<text x="850.0" y="658.0" text-anchor="middle" font-size="10.5" fill="#111">吕</text>
<text x="850.0" y="669.0" text-anchor="middle" font-size="10.5" fill="#111">秀</text>
<text x="850.0" y="680.0" text-anchor="middle" font-size="10.5" fill="#111">兰</text>
<text x="850.0" y="730" text-anchor="middle" font-size="7.5" fill="#888">b.1964</text>
<text x="869.0" y="644" text-anchor="end" font-size="8.5" fill="#666">G4</text>
</g>
<g filter="url(#shadow)">
<rect x="800.0" y="820" width="44" height="100" rx="10" ry="10" fill="#F2F6FF" stroke="#2F5AA8" stroke-width="1.6"/>
<text x="822.0" y="833.0" text-anchor="middle" font-size="10.5" fill="#111">♂</text>
<text x="822.0" y="844.0" text-anchor="middle" font-size="10.5" fill="#111">宋</text>
<text x="822.0" y="855.0" text-anchor="middle" font-size="10.5" fill="#111">海</text>
<text x="822.0" y="866.0" text-anchor="middle" font-size="10.5" fill="#111">斌</text>
<text x="822.0" y="916" text-anchor="middle" font-size="7.5" fill="#888">b.1989</text>
<text x="841.0" y="830" text-anchor="end" font-size="8.5" fill="#666">G5</text>
</g>
<g filter="url(#shadow)">
<rect x="992.0" y="448" width="44" height="100" rx="10" ry="10" fill="#FFF2F6" stroke="#A82F5A" stroke-width="1.6"/>
<text x="1014.0" y="461.0" text-anchor="middle" font-size="10.5" fill="#111">♀</text>
<text x="1014.0" y="472.0" text-anchor="middle" font-size="10.5" fill="#111">王</text>
<text x="1014.0" y="483.0" text-anchor="middle" font-size="10.5" fill="#111">莲</text>
<text x="1014.0" y="494.0" text-anchor="middle" font-size="10.5" fill="#111">珍</text>
<text x="1033.0" y="458" text-anchor="end" font-size="8.5" fill="#666">G3</text>
</g>
<g filter="url(#shadow)">
<rect x="936.0" y="448" width="44" height="100" rx="10" ry="10" fill="#F2F6FF" stroke="#2F5AA8" stroke-width="1.6"/>
<text x="958.0" y="461.0" text-anchor="middle" font-size="10.5" fill="#111">♂</text>
<text x="958.0" y="472.0" text-anchor="middle" font-size="10.5" fill="#111">周</text>
<text x="958.0" y="483.0" text-anchor="middle" font-size="10.5" fill="#111">洪</text>
<text x="958.0" y="494.0" text-anchor="middle" font-size="10.5" fill="#111">君</text>
<text x="977.0" y="458" text-anchor="end" font-size="8.5" fill="#666">G3</text>
</g>
<g filter="url(#shadow)">
<rect x="896.0" y="634" width="44" height="100" rx="10" ry="10" fill="#FFF2F6" stroke="#A82F5A" stroke-width="1.6"/>
<text x="918.0" y="647.0" text-anchor="middle" font-size="10.5" fill="#111">♀</text>
<text x="918.0" y="658.0" text-anchor="middle" font-size="10.5" fill="#111">周</text>
<text x="918.0" y="669.0" text-anchor="middle" font-size="10.5" fill="#111">林</text>
<text x="937.0" y="644" text-anchor="end" font-size="8.5" fill="#666">G4</text>
</g>
<g filter="url(#shadow)">
<rect x="964.0" y="634" width="44" height="100" rx="10" ry="10" fill="#F2F6FF" stroke="#2F5AA8" stroke-width="1.6"/>
<text x="986.0" y="647.0" text-anchor="middle" font-size="10.5" fill="#111">♂</text>
<text x="986.0" y="658.0" text-anchor="middle" font-size="10.5" fill="#111">周</text>
<text x="986.0" y="669.0" text-anchor="middle" font-size="10.5" fill="#111">安</text>
<text x="1005.0" y="644" text-anchor="end" font-size="8.5" fill="#666">G4</text>
</g>
<g filter="url(#shadow)">
<rect x="1032.0" y="634" width="44" height="100" rx="10" ry="10" fill="#FFF2F6" stroke="#A82F5A" stroke-width="1.6"/>
<text x="1054.0" y="647.0" text-anchor="middle" font-size="10.5" fill="#111">♀</text>
<text x="1054.0" y="658.0" text-anchor="middle" font-size="10.5" fill="#111">周</text>
<text x="1054.0" y="669.0" text-anchor="middle" font-size="10.5" fill="#111">敏</text>
<text x="1073.0" y="644" text-anchor="end" font-size="8.5" fill="#666">G4</text>
</g>
<g filter="url(#shadow)">
<rect x="1156.0" y="262" width="44" height="100" rx="10" ry="10" fill="#FFF2F6" stroke="#A82F5A" stroke-width="1.6"/>
<text x="1178.0" y="275.0" text-anchor="middle" font-size="10.5" fill="#111">♀</text>
<text x="1178.0" y="286.0" text-anchor="middle" font-size="10.5" fill="#111">王</text>
<text x="1178.0" y="297.0" text-anchor="middle" font-size="10.5" fill="#111">志</text>
<text x="1178.0" y="308.0" text-anchor="middle" font-size="10.5" fill="#111">贤</text>
<text x="1197.0" y="272" text-anchor="end" font-size="8.5" fill="#666">G2</text>
</g>
<g filter="url(#shadow)">
<rect x="1100.0" y="262" width="44" height="100" rx="10" ry="10" fill="#F2F6FF" stroke="#2F5AA8" stroke-width="1.6"/>
<text x="1122.0" y="275.0" text-anchor="middle" font-size="10.5" fill="#111">♂</text>
<text x="1122.0" y="286.0" text-anchor="middle" font-size="10.5" fill="#111">董</text>
<text x="1122.0" y="297.0" text-anchor="middle" font-size="10.5" fill="#111">伟</text>
<text x="1122.0" y="308.0" text-anchor="middle" font-size="10.5" fill="#111">杰</text>
<text x="1141.0" y="272" text-anchor="end" font-size="8.5" fill="#666">G2</text>
</g>
</g>
</svg>